<svg fill="#e6f5ff" id="Capa_1" enable-background="new 0 0 512 512" height="512" viewBox="0 0 512 512" width="512" xmlns="http://www.w3.org/2000/svg"><g><path  d="m162.846 212.011c-13.785 0-25 11.215-25 25 0 10.78 6.858 19.987 16.44 23.49.003.001.007.002.01.003l.013.005c2.665.971 5.541 1.503 8.538 1.503 13.785 0 25-11.215 25-25s-11.216-25.001-25.001-25.001z"/><path d="m162.846 371.989c-2.997 0-5.872.531-8.538 1.503l-.013.005c-.004.002-.009.002-.013.004-9.58 3.504-16.437 12.71-16.437 23.489 0 13.785 11.215 25 25 25s25-11.215 25-25-11.214-25.001-24.999-25.001z"/><path d="m497 182c-24.813 0-45-20.187-45-45 0-8.284-6.716-15-15-15h-6v-15c0-19.555-12.541-36.228-30-42.42v-34.58h96c8.284 0 15-6.716 15-15s-6.716-15-15-15h-482c-8.284 0-15 6.716-15 15s6.716 15 15 15h96v34.58c-17.459 6.192-30 22.865-30 42.42v15h-6c-8.284 0-15 6.716-15 15 0 24.813-20.187 45-45 45-8.284 0-15 6.716-15 15v240c0 8.284 6.716 15 15 15 24.813 0 45 20.187 45 45 0 8.284 6.716 15 15 15h362c8.284 0 15-6.716 15-15 0-24.813 20.187-45 45-45 8.284 0 15-6.716 15-15v-240c0-8.284-6.716-15-15-15zm-111-90c8.271 0 15 6.729 15 15v15h-30v-15c0-8.271 6.729-15 15-15zm-245-62h230v34.58c-17.459 6.192-30 22.865-30 42.42v15h-170v-15c0-19.555-12.541-36.228-30-42.42zm-30 77c0-8.271 6.729-15 15-15s15 6.729 15 15v15h-30zm283.295 240.856c7.785 2.833 11.798 11.441 8.965 19.226-2.217 6.091-7.97 9.874-14.096 9.874-1.704 0-3.436-.292-5.129-.909l-118.373-43.084-65.371 23.793c10.789 10.048 17.555 24.362 17.555 40.234 0 30.327-24.673 55-55 55s-55-24.673-55-55c0-23.742 15.123-44.016 36.242-51.702l77.717-28.288-77.718-28.287c-21.118-7.686-36.242-27.96-36.242-51.702 0-30.327 24.673-55 55-55s55 24.673 55 55c0 15.871-6.766 30.186-17.555 40.234l65.371 23.793 118.373-43.084c7.784-2.835 16.393 1.18 19.226 8.965s-1.18 16.393-8.965 19.226l-84.777 30.855z"/></g></svg>